<svg width="20" height="20" viewBox="0 0 20 20" fill="none" xmlns="http://www.w3.org/2000/svg">
<path d="M6.54548 18.1818C6.99735 18.1818 7.36366 17.8155 7.36366 17.3636C7.36366 16.9118 6.99735 16.5455 6.54548 16.5455C6.09361 16.5455 5.72729 16.9118 5.72729 17.3636C5.72729 17.8155 6.09361 18.1818 6.54548 18.1818Z" stroke="#9B9B9B" stroke-width="2" stroke-linecap="round" stroke-linejoin="round"/>
<path d="M15.5455 18.1818C15.9973 18.1818 16.3637 17.8155 16.3637 17.3636C16.3637 16.9118 15.9973 16.5455 15.5455 16.5455C15.0936 16.5455 14.7273 16.9118 14.7273 17.3636C14.7273 17.8155 15.0936 18.1818 15.5455 18.1818Z" stroke="#9B9B9B" stroke-width="2" stroke-linecap="round" stroke-linejoin="round"/>
<path d="M1 1H4.27273L6.46545 11.9555C6.54027 12.3321 6.7452 12.6705 7.04436 12.9113C7.34351 13.1522 7.71784 13.2801 8.10182 13.2727H16.0545C16.4385 13.2801 16.8129 13.1522 17.112 12.9113C17.4112 12.6705 17.6161 12.3321 17.6909 11.9555L19 5.09091H5.09091" stroke="#9B9B9B" stroke-width="2" stroke-linecap="round" stroke-linejoin="round"/>
</svg>
